<?xml version="1.0" standalone="no"?><!DOCTYPE svg PUBLIC "-//W3C//DTD SVG 1.1//EN" "http://www.w3.org/Graphics/SVG/1.1/DTD/svg11.dtd"><svg t="1575768953324" class="icon" viewBox="0 0 1024 1024" version="1.1" xmlns="http://www.w3.org/2000/svg" p-id="10912" xmlns:xlink="http://www.w3.org/1999/xlink" width="200" height="200"><defs><style type="text/css"></style></defs><path d="M512 32a480 480 0 1 0 480 480A480 480 0 0 0 512 32z m-12.8 768a70.08 70.08 0 1 1 70.4-70.4 70.08 70.08 0 0 1-70.4 70.4z m61.44-233.6a60.16 60.16 0 0 1-120.32 0c0-77.12 48-116.16 83.2-144.64 96-77.44-33.6-96-89.28-62.08a57.92 57.92 0 0 1-90.56-47.68 58.88 58.88 0 0 1 32-51.52 231.04 231.04 0 0 1 128-35.52c105.28 0 176 61.44 176 152.96 0.64 115.84-119.04 131.84-119.04 187.84z" fill="#231F20" p-id="10913"></path></svg>