<?xml version="1.0" standalone="no"?><!DOCTYPE svg PUBLIC "-//W3C//DTD SVG 1.1//EN" "http://www.w3.org/Graphics/SVG/1.1/DTD/svg11.dtd"><svg t="1575768849622" class="icon" viewBox="0 0 1024 1024" version="1.1" xmlns="http://www.w3.org/2000/svg" p-id="7673" xmlns:xlink="http://www.w3.org/1999/xlink" width="200" height="200"><defs><style type="text/css"></style></defs><path d="M180.032 142.88 74.496 142.88 74.496 331.36 180.032 248.416Z" p-id="7674"></path><path d="M614.784 318.592c5.536-2.656 11.072-5.28 16.672-7.744l-240.288-185.856L4.128 424.352l70.368 0 0 474.688 211.104 0L285.6 547.2l109.504 0 8.64-18.656C447.872 432.896 521.216 364.16 614.784 318.592z" p-id="7675"></path><path d="M707.52 410.688c-29.696 3.904-96.416 28-147.456 62.944-28.864 19.744-56.256 44.128-81.856 73.536l18.56 0 0 351.84 211.072 0L707.84 473.504l-0.32 0.16L707.52 410.688z" p-id="7676"></path><path d="M1019.872 359.072l-157.056-146.432L851.52 293.312c-63.936 3.712-315.328 32.128-415.84 249.952 157.888-198.88 357.088-172.48 403.552-162.976l-10.688 76.288L1019.872 359.072z" p-id="7677"></path></svg>